<?xml version="1.0" encoding="UTF-8" standalone="no"?>
<!-- Created with Inkscape (http://www.inkscape.org/) -->

<svg
   version="1.1"
   id="svg2"
   width="454.66666"
   height="149.33333"
   viewBox="0 0 454.66666 149.33333"
   sodipodi:docname="full_logo_w.png"
   inkscape:export-filename="full_logo_w.svg"
   inkscape:export-xdpi="46.928574"
   inkscape:export-ydpi="46.928574"
   xmlns:inkscape="http://www.inkscape.org/namespaces/inkscape"
   xmlns:sodipodi="http://sodipodi.sourceforge.net/DTD/sodipodi-0.dtd"
   xmlns="http://www.w3.org/2000/svg"
   xmlns:svg="http://www.w3.org/2000/svg">
   <defs
      id="defs6" />
   <sodipodi:namedview
      id="namedview4"
      pagecolor="#ffffff"
      bordercolor="#000000"
      borderopacity="0.25"
      inkscape:showpageshadow="2"
      inkscape:pageopacity="0.0"
      inkscape:pagecheckerboard="0"
      inkscape:deskcolor="#d1d1d1"
      showgrid="false" />
   <g
      id="g116"
      transform="translate(-0.37018452,2.1581785)"
      style="display:inline">
      <path
         style="display:inline;fill:#53b334;stroke-width:1.33333"
         d="m 175.03073,92.391585 c -3.17972,-4.853392 -2.87496,-16.516647 0.80984,-30.992556 3.81203,-14.975754 7.35928,-17.39359 10.35224,-7.056177 1.34835,4.657101 1.20357,6.698131 -0.97072,13.68411 -1.46347,4.702128 -2.55543,12.087144 -2.55543,17.282511 0,7.042388 -0.47182,9.252944 -2.10905,9.881206 -2.9882,1.146682 -2.91873,1.181866 -5.52688,-2.799094 z m 18.39256,1.109842 c -2.90085,-5.420305 -0.76768,-11.085414 7.09216,-18.834762 5.68068,-5.600816 5.8408,-7.073849 1.40155,-12.893998 -3.59496,-4.71324 -4.1449,-12.388345 -0.96247,-13.432609 0.89167,-0.292584 4.58007,2.235694 8.19645,5.618398 l 6.57524,6.150372 7.69127,-5.387748 c 8.66481,-6.069728 10.56277,-6.494985 12.5356,-2.808736 2.24115,4.187623 1.78665,4.896901 -7.28643,11.371319 -4.76666,3.401422 -8.66442,6.604089 -8.66168,7.117037 0.007,1.243181 5.39559,10.086713 6.66196,10.932632 2.13938,1.429061 2.59872,8.691939 0.70627,11.167233 -2.74448,3.589744 -5.08476,2.074096 -9.85867,-6.384811 -2.31221,-4.096998 -4.67396,-7.449089 -5.24833,-7.449089 -1.92124,0 -12.01388,11.298846 -12.49176,13.984688 -0.63993,3.596621 -4.59775,4.126357 -6.35116,0.850074 z m 47.92071,1.227375 c -3.62099,-0.919772 -6.62664,-5.632889 -6.65768,-10.439796 -0.0107,-1.674379 1.54378,-6.129625 3.45465,-9.900548 3.14784,-6.211944 3.32572,-7.352205 1.89296,-12.134337 -2.02704,-6.765644 -0.81452,-7.981724 10.63273,-10.663897 14.48454,-3.393828 20.35591,-3.779413 23.3039,-1.530413 4.41598,3.36893 0.97677,6.276721 -11.21104,9.478712 -6.02446,1.582749 -11.26998,3.19415 -11.65672,3.580892 -1.92824,1.928248 1.77264,3.694825 7.05937,3.369717 4.48153,-0.275591 6.54288,0.289995 8.61727,2.364377 l 2.72661,2.726623 -3.69869,2.423476 c -2.3304,1.526941 -6.18504,2.427597 -10.4197,2.434614 -7.07293,0.01173 -9.9311,1.939996 -10.01193,6.754583 -0.0387,2.301737 0.69787,2.45188 8.29093,1.690193 4.58334,-0.459771 9.53334,-1.144813 11,-1.522316 1.46667,-0.377504 3.85342,0.228048 5.3039,1.345672 3.46761,2.671877 1.47078,6.069821 -4.76732,8.112447 -5.81152,1.902942 -19.55555,3.00319 -23.85924,1.910001 z m 41.16281,0.370211 c -1.18792,-0.308584 -3.17612,-2.814724 -4.41821,-5.5692 -2.61599,-5.80122 -2.09327,-8.77068 5.19817,-29.529814 4.02872,-11.470021 4.74444,-12.631168 7.57593,-12.290913 6.66822,0.801309 7.22059,3.214034 3.2366,14.137425 -2.00666,5.501921 -4.47814,12.760289 -5.4922,16.129709 l -1.84372,6.126215 9.70538,-0.879477 c 11.64458,-1.055205 18.66249,1.494579 17.94722,6.520685 -0.36804,2.586142 -1.26116,2.936855 -7.74932,3.043054 -6.3663,0.1042 -12.53524,0.859208 -20,2.447762 -1.1,0.234088 -2.97193,0.173136 -4.15985,-0.135446 z m 45.96852,-1.461996 c -7.27029,-5.860206 -6.19745,-15.452573 4.49429,-40.183764 0.6698,-1.549322 -0.59918,-1.732495 -7.21324,-1.04119 -9.68993,1.012797 -12.54069,-0.56936 -12.86344,-7.13912 l -0.22628,-4.606277 11.26688,-0.391568 c 6.19679,-0.215364 12.02051,-1.017018 12.9416,-1.781454 0.9211,-0.764437 2.31303,-0.995384 3.09319,-0.513214 0.78017,0.482168 6.80846,0.221312 13.39622,-0.579682 10.33374,-1.256461 12.41927,-1.167047 15.19463,0.651439 4.30535,2.820971 5.44603,6.158959 2.77271,8.113748 -1.18063,0.863289 -6.98199,1.997649 -12.89191,2.520797 l -10.74533,0.951179 -3.93495,8.84771 c -2.16423,4.866242 -5.1515,11.510288 -6.63841,14.764548 -3.90919,8.555673 -4.65853,14.499454 -1.95859,15.53552 2.94819,1.131321 2.73682,4.150805 -0.40838,5.834064 -3.20679,1.71622 -2.86406,1.76986 -6.27899,-0.982736 z m 79.02577,0.319388 c -2.43348,-6.341555 1.32776,-15.121679 9.63703,-22.496391 3.65166,-3.240957 3.62625,-3.464814 -1.06348,-9.36607 -2.88731,-3.633207 -3.78967,-6.011421 -3.4123,-8.993267 0.28218,-2.229625 0.79283,-4.333639 1.13478,-4.675586 1.24181,-1.241817 8.71656,3.626405 11.9898,7.808829 l 3.3549,4.286779 7.97435,-5.593684 c 9.13009,-6.404393 11.23548,-6.808765 13.18401,-2.532192 1.68452,3.697114 0.36714,5.787005 -6.3002,9.994628 -2.56666,1.619772 -6.05044,4.118301 -7.74172,5.552287 l -3.07504,2.607247 4.74171,7.041043 c 4.95659,7.360095 6.01385,13.027671 2.91072,15.603047 -2.85589,2.370182 -5.79713,0.417038 -8.84111,-5.87099 -4.34982,-8.985521 -6.00341,-9.777967 -10.83416,-5.192023 -2.24208,2.128465 -5.07133,5.9619 -6.28721,8.518744 -2.42163,5.092397 -6.06067,6.725104 -7.37208,3.307599 z M 121.16296,91.491858 c -1.00369,-2.202859 -1.03936,-5.083947 -0.11651,-9.410896 0.90431,-4.240044 0.88454,-7.416317 -0.0618,-9.923385 -1.78402,-4.726408 -0.37596,-10.272009 3.53891,-13.937886 1.69532,-1.587498 3.80769,-5.106368 4.69415,-7.819712 1.84892,-5.659328 9.47676,-12.974371 13.82866,-13.261562 7.91504,-0.522335 14.9857,0.346079 17.79269,2.185289 6.24624,4.09269 10.10303,17.13737 6.87193,23.242751 -2.32054,4.384858 -11.32796,8.676951 -23.91837,11.397272 l -10.45932,2.259868 v 5.825464 c 0,8.503022 -2.2531,12.617604 -6.90927,12.617604 -2.72418,0 -4.22805,-0.90751 -5.2611,-3.174807 z m 27.44781,-32.904881 c 9.78169,-3.021258 10.71779,-5.19756 3.06608,-7.128238 -5.91319,-1.492016 -12.43629,0.869368 -13.48557,4.881821 -0.654,2.500873 -0.11482,4.992772 1.08029,4.992772 0.24615,0 4.44879,-1.23586 9.3392,-2.746355 z m 221.48581,32.964156 c -4.63052,-4.630518 -6.42124,-14.905539 -4.63967,-26.621926 1.76967,-11.638055 2.9113,-13.156393 6.89123,-9.165238 2.61144,2.618803 2.9466,4.198172 2.67695,12.614815 -0.41855,13.064512 0.41168,14.110541 8.20506,10.337825 8.11323,-3.927544 12.10447,-9.423725 15.07304,-20.756462 1.52111,-5.80696 3.12107,-9.293481 4.26475,-9.293481 2.68155,0 5.71497,9.824941 4.73415,15.333333 -2.32706,13.068782 -20.38779,30.666666 -31.47324,30.666666 -1.4392,0 -4.01872,-1.40199 -5.73227,-3.115532 z"
         id="path122"
         sodipodi:nodetypes="sssssssssssscssscssssssscsssssssscsscssssssssssscssssssssscssssssscssssssssssscsssscsssssscscsssssscssccsssssssssssssss" />
   </g>
   <g
      id="g387"
      transform="matrix(0.21222782,0,0,0.21222782,6.0201855,3.3360414)"
      style="display:inline">
      <path
         style="display:inline;fill:#f6f6f6;fill-opacity:1;stroke-width:1.33333"
         d="m 342.96969,649.95712 c -3.76175,-2.53331 -7.41316,-4.60601 -8.11426,-4.60601 -0.7011,0 -2.41904,1.57089 -3.81765,3.49088 -2.14302,2.94188 -3.19528,3.34758 -6.69102,2.5798 -5.50133,-1.2083 -6.37205,-5.47127 -3.71696,-18.19812 1.1328,-5.42991 2.04104,-11.67256 2.01832,-13.87256 -0.0803,-7.76635 -5.4371,-11.33334 -17.02036,-11.33334 -6.83266,0 -8.39993,0.49409 -11.5457,3.63987 -2.9017,2.90169 -3.48335,4.4565 -2.8681,7.66667 0.42448,2.21473 1.60858,8.19389 2.63131,13.28701 2.88607,14.3722 -1.2984,21.34719 -9.11707,15.19701 -1.83064,-1.43998 -5.28777,-2.93421 -7.68252,-3.32052 -3.49224,-0.56333 -4.99388,-0.0196 -7.58648,2.74714 -4.31338,4.60305 -7.8015,4.51228 -8.34569,-0.21718 -0.39196,-3.40657 -0.84751,-3.66173 -6.42189,-3.59712 -3.3,0.0383 -7.65,0.55331 -9.66667,1.14455 -6.40499,1.87781 -4.62711,-3.50452 3.33287,-10.08993 3.84974,-3.18496 8.02524,-6.99083 9.27888,-8.4575 3.64804,-4.26794 6.38825,-13.84659 6.38825,-22.33061 0,-6.54759 -0.66603,-8.82362 -4,-13.66939 -2.2,-3.19759 -4,-6.21307 -4,-6.70107 0,-0.488 -1.07497,-2.4799 -2.38884,-4.42644 -7.26075,-10.75709 -16.27398,-38.29829 -21.44859,-65.53916 -3.05826,-16.09973 -8.22388,-56.83096 -8.1873,-64.55745 0.0342,-7.21798 -2.67538,-22.10922 -4.0229,-22.10922 -1.32961,0 -8.78942,9.26019 -13.4263,16.66667 -4.95822,7.91973 -7.65668,14.19792 -11.33755,26.37769 -3.1244,10.33848 -3.28928,12.45784 -2.92683,37.62231 0.21124,14.66667 -0.0967,27.41667 -0.68417,28.33334 -1.63385,2.54912 -4.08363,1.97284 -5.71227,-1.34374 -0.80742,-1.64428 -3.26572,-6.5896 -5.46286,-10.9896 -2.19714,-4.4 -5.28651,-11.15 -6.86527,-15 -1.57876,-3.85 -4.03415,-9.85 -5.45641,-13.33333 -3.54315,-8.67762 -7.31464,-21.26372 -10.88747,-36.33334 -2.62416,-11.06826 -3.01211,-16.36822 -3.07427,-42 -0.0639,-26.33136 0.25116,-30.69787 3.07828,-42.66667 4.38146,-18.54918 11.6776,-41.67579 17.03634,-54 3.87145,-8.90372 19.22409,-39.36804 23.18192,-46 2.1882,-3.66667 4.36805,-7.56667 4.84412,-8.66667 0.47606,-1.1 3.1624,-5.41708 5.96962,-9.5935 2.80724,-4.17643 5.10407,-7.95072 5.10407,-8.38732 0,-0.4366 1.11917,-2.41952 2.48707,-4.4065 6.10233,-8.86419 13.18237,-20.24487 17.17813,-27.61268 8.09092,-14.91889 23.00148,-45.8 23.00148,-47.63811 0,-1.0057 0.503,-2.39856 1.11777,-3.09522 0.61478,-0.69667 3.05596,-6.36667 5.42484,-12.6 2.3689,-6.23334 5.4659,-14.26335 6.88223,-17.84447 1.41633,-3.58113 2.57516,-7.16954 2.57516,-7.97424 0,-0.8047 1.15856,-4.47469 2.57459,-8.15553 1.41602,-3.68084 3.86702,-10.29243 5.44666,-14.69243 3.41706,-9.518042 7.77387,-20.353613 9.58944,-23.849339 7.23348,-13.927466 10.80704,-18.868905 20.35799,-28.150661 20.02441,-19.460027 38.34134,-24.439503 71.36466,-19.400561 20.82073,3.176982 23.5113,2.871675 45.195,-5.128405 25.3077,-9.337139 48.46654,-12.236439 59.89204,-7.498019 3.16456,1.31241 5.26456,2.82032 4.66667,3.35092 -0.59788,0.5306 -4.98705,1.7185 -9.75372,2.63979 -41.88392,8.095235 -80.36337,33.225729 -93.67993,61.181296 -4.47738,9.39941 -4.97092,33.993299 -0.97852,48.760939 3.221,11.91424 7.24026,23.96155 10.7073,32.09404 1.25053,2.93333 3.94514,9.23333 5.98802,14 5.37402,12.53924 24.24747,49.30597 42.43525,82.66667 9.26279,16.99015 23.52788,46.29832 23.52788,48.33892 0,0.98693 0.5264,2.36441 1.16977,3.06108 1.05459,1.14195 3.46418,7.17597 8.22628,20.6 0.91052,2.56667 2.7689,7.59668 4.12972,11.1778 1.36083,3.58114 2.47423,7.43856 2.47423,8.57208 0,1.13351 1.16801,6.0035 2.5956,10.82219 8.01469,27.05307 11.8234,63.51598 9.37473,89.74971 -2.7464,29.4234 -10.24386,49.96587 -25.51073,69.89731 -10.85513,14.17177 -13.12988,11.25685 -13.11601,-16.80726 0.0107,-21.48192 -2.31511,-38.06552 -8.3321,-59.41182 -6.00462,-21.30247 -13.4144,-33.36031 -19.93277,-32.43639 -2.97339,0.42145 -3.1087,1.00652 -3.95538,17.10305 -0.48217,9.16667 -1.57803,21.46667 -2.43524,27.33334 -0.85721,5.86666 -2.04717,14.26666 -2.64435,18.66666 -1.37732,10.148 -5.00076,24.77808 -8.21717,33.1778 -1.37128,3.58114 -2.49324,7.31952 -2.49324,8.30754 0,1.61734 -8.72475,21.44039 -12.19048,27.69735 -8.19983,14.80378 -12.24857,20.81413 -22.5558,33.48398 -4.17608,5.13334 -10.38232,12.3163 -13.79164,15.96214 -8.3978,8.98041 -9.95964,14.51636 -6.89067,24.42397 1.9123,6.17347 3.88232,9.04274 10.41327,15.16655 5.51083,5.16728 7.79859,8.22032 7.24357,9.66667 -1.37178,3.57481 -7.63358,3.19374 -13.25128,-0.8064 -2.99669,-2.13384 -4.12478,-2.34012 -5.69064,-1.04059 -1.07414,0.89147 -1.953,2.71197 -1.953,4.04557 0,4.13655 -1.96945,3.95996 -9.05526,-0.81189 z"
         id="path389-3"
         sodipodi:nodetypes="sssssssssssssssssssssssssssscsssssssssssscsssssssssssssssscsssssssscsscsssssssssssssssss" />
      <path
         style="fill:#50ac32;stroke-width:1.33333"
         d="m 344.68617,60.883553 c -2.71416,-4.142332 -1.52902,-9.315185 2.6461,-11.549641 4.23833,-2.268286 9.50365,-0.993226 11.37126,3.401613 0.96468,2.270071 1.1254,4.725439 -0.13066,7.035978 -2.79437,5.140271 -10.84915,5.747918 -13.8867,1.11205 z m 8.39335,-4.550218 c -0.19494,-2.273448 -3.39327,-2.147466 -3.73708,0.07468 -0.19105,1.234787 0.72829,2.47477 1.99091,2.258657 1.35847,-0.232519 1.88176,-0.75202 1.79046,-1.816818 z"
         id="path395"
         sodipodi:nodetypes="ssssssssss" />
      <path
         style="display:inline;fill:#151515;stroke-width:1.33333"
         d="m 342.94475,649.93937 c -3.76175,-2.53331 -7.41316,-4.60601 -8.11426,-4.60601 -0.7011,0 -2.41904,1.57089 -3.81765,3.49088 -2.14302,2.94188 -3.19528,3.34758 -6.69102,2.5798 -5.50133,-1.2083 -6.37205,-5.47127 -3.71696,-18.19812 1.1328,-5.42991 2.04104,-11.67256 2.01832,-13.87256 -0.0803,-7.76635 -5.4371,-11.33334 -17.02036,-11.33334 -6.83266,0 -8.39993,0.49409 -11.5457,3.63987 -2.9017,2.90169 -3.48335,4.4565 -2.8681,7.66667 0.42448,2.21473 1.60858,8.19389 2.63131,13.28701 2.88607,14.3722 -1.2984,21.34719 -9.11707,15.19701 -1.83064,-1.43998 -5.28777,-2.93421 -7.68252,-3.32052 -3.49224,-0.56333 -4.99388,-0.0196 -7.58648,2.74714 -4.31338,4.60305 -7.8015,4.51228 -8.34569,-0.21718 -0.39196,-3.40657 -0.84751,-3.66173 -6.42189,-3.59712 -3.3,0.0383 -7.65,0.55331 -9.66667,1.14455 -6.40499,1.87781 -4.62711,-3.50452 3.33287,-10.08993 3.84974,-3.18496 8.02524,-6.99083 9.27888,-8.4575 3.64804,-4.26794 6.38825,-13.84659 6.38825,-22.33061 0,-6.54759 -0.66603,-8.82362 -4,-13.66939 -2.2,-3.19759 -4,-6.21307 -4,-6.70107 0,-0.488 -1.07497,-2.4799 -2.38884,-4.42644 -7.26075,-10.75709 -16.27398,-38.29829 -21.44858,-65.53916 -3.05826,-16.09973 -8.22388,-56.83096 -8.1873,-64.55745 0.0342,-7.21798 -2.67538,-22.10922 -4.0229,-22.10922 -1.32961,0 -8.78942,9.26019 -13.4263,16.66667 -4.95822,7.91973 -7.65668,14.19792 -11.33755,26.37769 -3.1244,10.33848 -3.28928,12.45784 -2.92683,37.62231 0.21124,14.66667 -0.0967,27.41667 -0.68417,28.33334 -1.63385,2.54912 -4.08363,1.97284 -5.71227,-1.34374 -0.80742,-1.64428 -3.26572,-6.5896 -5.46286,-10.9896 -2.19714,-4.4 -5.28651,-11.15 -6.86527,-15 -1.57876,-3.85 -4.03415,-9.85 -5.45641,-13.33333 -3.54315,-8.67762 -7.31464,-21.26372 -10.88747,-36.33334 -2.62416,-11.06826 -3.01211,-16.36822 -3.07427,-42 -0.0639,-26.33136 0.25116,-30.69787 3.07828,-42.66667 4.38146,-18.54918 11.6776,-41.67579 17.03634,-54 3.87145,-8.90372 19.22409,-39.36804 23.18192,-46 2.1882,-3.66667 4.36805,-7.56667 4.84412,-8.66667 0.47606,-1.1 3.1624,-5.41708 5.96962,-9.5935 2.80724,-4.17643 5.10407,-7.95072 5.10407,-8.38732 0,-0.4366 1.11917,-2.41952 2.48707,-4.4065 6.10233,-8.86419 13.18237,-20.24487 17.17813,-27.61268 8.09091,-14.91889 23.00147,-45.8 23.00147,-47.63811 0,-1.0057 0.503,-2.39856 1.11777,-3.09522 0.61478,-0.69667 3.05596,-6.36667 5.42484,-12.6 2.3689,-6.23334 5.4659,-14.26335 6.88223,-17.84447 1.41633,-3.58113 2.57516,-7.16954 2.57516,-7.97424 0,-0.8047 1.15856,-4.47469 2.57459,-8.15553 1.41602,-3.68084 3.86702,-10.29243 5.44666,-14.69243 3.41706,-9.518047 7.77387,-20.353618 9.58944,-23.849344 7.23348,-13.927466 10.80704,-18.868905 20.35799,-28.150661 20.02441,-19.460027 38.34134,-24.439503 71.36466,-19.400561 20.82073,3.176982 23.5113,2.871675 45.195,-5.128405 25.30771,-9.337136 48.46655,-12.236442 59.89205,-7.498022 3.16456,1.312411 5.26456,2.820326 4.66667,3.350922 -0.59788,0.530597 -4.98705,1.718505 -9.75372,2.639796 -41.88392,8.09523 -80.36338,33.225724 -93.67994,61.181291 -4.47738,9.39941 -4.97092,33.993304 -0.97852,48.760944 3.221,11.91424 7.24026,23.96155 10.7073,32.09404 1.25053,2.93333 3.94514,9.23333 5.98802,14 5.37402,12.53924 24.24747,49.30597 42.43526,82.66667 9.26279,16.99015 23.52788,46.29832 23.52788,48.33892 0,0.98693 0.5264,2.36441 1.16977,3.06108 1.05459,1.14195 3.46418,7.17597 8.22628,20.6 0.91052,2.56667 2.7689,7.59668 4.12972,11.1778 1.36083,3.58114 2.47423,7.43856 2.47423,8.57208 0,1.13351 1.16801,6.0035 2.5956,10.82219 8.01469,27.05307 11.8234,63.51598 9.37473,89.74971 -2.7464,29.4234 -10.24386,49.96587 -25.51073,69.89731 -10.85513,14.17177 -13.12988,11.25685 -13.11601,-16.80726 0.0107,-21.48192 -2.31511,-38.06552 -8.3321,-59.41182 -6.00462,-21.30247 -13.4144,-33.36031 -19.93278,-32.43639 -2.97339,0.42145 -3.1087,1.00652 -3.95538,17.10305 -0.48217,9.16667 -1.57803,21.46667 -2.43524,27.33334 -0.85721,5.86666 -2.04717,14.26666 -2.64435,18.66666 -1.37732,10.148 -5.00076,24.77808 -8.21717,33.1778 -1.37128,3.58114 -2.49324,7.31952 -2.49324,8.30754 0,1.61734 -8.72475,21.44039 -12.19048,27.69735 -8.19983,14.80378 -12.24857,20.81413 -22.5558,33.48398 -4.17608,5.13334 -10.38232,12.3163 -13.79164,15.96214 -8.3978,8.98041 -9.95964,14.51636 -6.89067,24.42397 1.9123,6.17347 3.88232,9.04274 10.41327,15.16655 5.51083,5.16728 7.79859,8.22032 7.24357,9.66667 -1.37178,3.57481 -7.63358,3.19374 -13.25128,-0.8064 -2.99669,-2.13384 -4.12478,-2.34012 -5.69064,-1.04059 -1.07414,0.89147 -1.953,2.71197 -1.953,4.04557 0,4.13655 -1.96945,3.95996 -9.05526,-0.81189 z m 2.86464,-69.85414 c 13.91937,-6.65288 24.72086,-18.71657 36.62296,-40.90253 5.31444,-9.90632 17.5844,-45.69942 17.55844,-51.2203 -0.005,-1.07932 1.15905,-7.36238 2.58694,-13.96238 1.4279,-6.6 3.83372,-22.5 5.34628,-35.33334 4.42332,-37.52951 3.38847,-101.22849 -1.957,-120.46096 -0.43908,-1.5798 1.12695,0.1276 3.48007,3.79429 2.35312,3.66667 9.44017,14.46515 15.749,23.99662 6.30883,9.53146 12.12595,18.53146 12.92694,20 0.80098,1.46853 3.03946,5.37005 4.97438,8.67005 19.07731,32.53621 29.18311,64.90082 29.45524,94.33268 0.0627,6.78296 0.44552,12.33296 0.85066,12.33334 1.38609,0.001 5.60101,-13.52275 7.40668,-23.76506 2.30468,-13.07294 2.30108,-25.1777 -0.0133,-43.56763 -2.23317,-17.74722 -4.67761,-27.58985 -12.91432,-52 -8.1124,-24.04174 -9.63389,-28.06765 -15.2763,-40.42132 -7.28922,-15.96005 -8.22626,-17.90157 -33.90237,-70.24535 -27.0802,-55.20621 -30.01146,-61.39289 -36.00897,-76 -11.10752,-27.05265 -16.11184,-57.43134 -11.36648,-69 0.67735,-1.65129 0.33081,-2.33334 -1.18553,-2.33334 -1.17847,0 -2.14266,0.6 -2.14266,1.33334 0,0.73333 -0.67646,1.33333 -1.50325,1.33333 -4.43283,0 -53.79268,46.8542 -75.14808,71.33334 -5.75778,6.6 -11.28326,12.9 -12.27884,14 -5.60008,6.18745 -8.75004,9.99117 -14.55512,17.57597 -3.54607,4.63321 -6.95908,9.02403 -7.58447,9.75736 -7.82209,9.17221 -37.95178,54.66127 -45.36002,68.48344 -30.53141,56.96502 -43.54265,99.84535 -43.5474,143.51657 -0.001,11.51628 3.21064,41.01436 4.73428,43.47965 1.95962,3.17074 3.2429,0.40811 3.2429,-6.98126 0,-23.1164 16.19458,-73.03935 33.70682,-103.90781 11.0873,-19.54333 28.23287,-40.19485 40.80127,-49.14433 4.44024,-3.16174 5.01138,-2.86443 2.72047,1.41618 -0.79096,1.47792 -2.70335,10.28847 -4.24975,19.57902 -2.29926,13.81357 -2.82688,22.84492 -2.89522,49.55855 -0.19378,75.7288 13.97886,146.62182 35.71829,178.66667 5.9746,8.80681 14.29904,17.33333 16.92253,17.33333 1.78572,0 4.07558,-5.3633 10.38907,-24.33333 4.45417,-13.38333 8.92397,-26.59943 9.93291,-29.36908 l 1.83441,-5.03576 2.20453,10.36909 c 1.2125,5.70299 3.35728,16.06908 4.76618,23.03575 1.40889,6.96667 3.2617,16.11667 4.11734,20.33333 1.83485,9.04218 2.43286,9.20428 13.84053,3.75188 z M 389.88128,72.660757 c 3.82765,-5.841749 16.38244,-17.403458 25.73623,-23.700523 15.2184,-10.245181 32.72795,-18.174796 51.04917,-23.118832 9.4899,-2.560877 11.49582,-4.5158 4.6,-4.483073 -5.95929,0.02828 -25.91046,5.038453 -35.93773,9.024736 -19.66443,7.817494 -39.17003,24.165056 -46.80071,39.223476 -3.38533,6.680638 -2.43245,8.831596 1.35304,3.054216 z m -33.01079,-9.286633 c 3.81006,-2.668667 4.51898,-6.311418 2.17154,-11.158354 -3.25448,-6.719766 -13.40743,-6.047622 -16.36108,1.083135 -3.46191,8.357761 6.52129,15.446276 14.18954,10.075219 z m -6.81353,-5.948658 c -0.45399,-0.661767 -0.24164,-1.796966 0.58797,-2.078689 1.22155,-0.414819 1.89839,0.186584 2.0018,1.325179 0.11461,1.261837 -1.47182,2.383109 -2.58977,0.75351 z"
         id="path389"
         sodipodi:nodetypes="sssssssssssssssssssssssssssscsssssssssssssssssssssssssssssssssssssssssssssssssssssssssssssssssssssscscscssssssssssscssssssssssscssssssssssssssssssss" />
   </g>
</svg>
